<svg xmlns="http://www.w3.org/2000/svg" xmlns:xlink="http://www.w3.org/1999/xlink" width="500" zoomAndPan="magnify" viewBox="0 0 375 374.999991" height="500" preserveAspectRatio="xMidYMid meet" version="1.0"><defs><g/><clipPath id="a76c3980ed"><path d="M 82 64 L 282 64 L 282 272 L 82 272 Z M 82 64 " clip-rule="nonzero"/></clipPath><clipPath id="777a3dc51b"><path d="M 179.679688 21.921875 L 337.992188 166.652344 L 195.28125 322.75 L 36.96875 178.019531 Z M 179.679688 21.921875 " clip-rule="nonzero"/></clipPath><clipPath id="6b608ad811"><path d="M 179.679688 21.921875 L 337.992188 166.652344 L 195.28125 322.75 L 36.96875 178.019531 Z M 179.679688 21.921875 " clip-rule="nonzero"/></clipPath><clipPath id="5793160614"><path d="M 120 102 L 247 102 L 247 234 L 120 234 Z M 120 102 " clip-rule="nonzero"/></clipPath><clipPath id="bc5575e578"><path d="M 179.679688 21.921875 L 337.992188 166.652344 L 195.28125 322.75 L 36.96875 178.019531 Z M 179.679688 21.921875 " clip-rule="nonzero"/></clipPath><clipPath id="e56eb21da8"><path d="M 179.679688 21.921875 L 337.992188 166.652344 L 195.28125 322.75 L 36.96875 178.019531 Z M 179.679688 21.921875 " clip-rule="nonzero"/></clipPath><clipPath id="f57489a7ea"><path d="M 241 141 L 254 141 L 254 155 L 241 155 Z M 241 141 " clip-rule="nonzero"/></clipPath><clipPath id="ff9b6e7089"><path d="M 179.679688 21.921875 L 337.992188 166.652344 L 195.28125 322.75 L 36.96875 178.019531 Z M 179.679688 21.921875 " clip-rule="nonzero"/></clipPath><clipPath id="38125de076"><path d="M 179.679688 21.921875 L 337.992188 166.652344 L 195.28125 322.75 L 36.96875 178.019531 Z M 179.679688 21.921875 " clip-rule="nonzero"/></clipPath><clipPath id="a4b14bb76a"><path d="M 265 198 L 293 198 L 293 225 L 265 225 Z M 265 198 " clip-rule="nonzero"/></clipPath><clipPath id="ad2ac09087"><path d="M 179.679688 21.921875 L 337.992188 166.652344 L 195.28125 322.75 L 36.96875 178.019531 Z M 179.679688 21.921875 " clip-rule="nonzero"/></clipPath><clipPath id="e48d9a18aa"><path d="M 179.679688 21.921875 L 337.992188 166.652344 L 195.28125 322.75 L 36.96875 178.019531 Z M 179.679688 21.921875 " clip-rule="nonzero"/></clipPath><clipPath id="ab73c2004d"><path d="M 96 221 L 107 221 L 107 231 L 96 231 Z M 96 221 " clip-rule="nonzero"/></clipPath><clipPath id="f24d5c497e"><path d="M 179.679688 21.921875 L 337.992188 166.652344 L 195.28125 322.75 L 36.96875 178.019531 Z M 179.679688 21.921875 " clip-rule="nonzero"/></clipPath><clipPath id="04563afb9f"><path d="M 179.679688 21.921875 L 337.992188 166.652344 L 195.28125 322.75 L 36.96875 178.019531 Z M 179.679688 21.921875 " clip-rule="nonzero"/></clipPath><clipPath id="7af0d2ffb4"><path d="M 91 211 L 97 211 L 97 217 L 91 217 Z M 91 211 " clip-rule="nonzero"/></clipPath><clipPath id="7fa2646743"><path d="M 179.679688 21.921875 L 337.992188 166.652344 L 195.28125 322.75 L 36.96875 178.019531 Z M 179.679688 21.921875 " clip-rule="nonzero"/></clipPath><clipPath id="fea91fb593"><path d="M 179.679688 21.921875 L 337.992188 166.652344 L 195.28125 322.75 L 36.96875 178.019531 Z M 179.679688 21.921875 " clip-rule="nonzero"/></clipPath><clipPath id="fed2f84671"><path d="M 107 234 L 119 234 L 119 246 L 107 246 Z M 107 234 " clip-rule="nonzero"/></clipPath><clipPath id="afc22a6ef2"><path d="M 179.679688 21.921875 L 337.992188 166.652344 L 195.28125 322.75 L 36.96875 178.019531 Z M 179.679688 21.921875 " clip-rule="nonzero"/></clipPath><clipPath id="6564e3ee8a"><path d="M 179.679688 21.921875 L 337.992188 166.652344 L 195.28125 322.75 L 36.96875 178.019531 Z M 179.679688 21.921875 " clip-rule="nonzero"/></clipPath></defs><rect x="-37.5" width="450" fill="#ffffff" y="-37.499999" height="449.999989" fill-opacity="1"/><rect x="-37.5" width="450" fill="#b20606" y="-37.499999" height="449.999989" fill-opacity="1"/><g clip-path="url(#a76c3980ed)"><g clip-path="url(#777a3dc51b)"><g clip-path="url(#6b608ad811)"><path fill="#f5c6c6" d="M 116.339844 244.839844 C 74.167969 206.285156 71.226562 140.609375 109.777344 98.441406 C 148.332031 56.269531 214.007812 53.328125 256.175781 91.878906 C 261.667969 96.878906 266.558594 102.40625 270.851562 108.460938 C 275.144531 114.519531 278.738281 120.964844 281.636719 127.800781 L 280.527344 128.273438 C 277.664062 121.515625 274.113281 115.144531 269.867188 109.160156 C 265.625 103.171875 260.789062 97.710938 255.363281 92.769531 C 213.683594 54.664062 148.773438 57.574219 110.667969 99.253906 C 72.5625 140.933594 75.46875 205.84375 117.152344 243.949219 C 158.832031 282.054688 223.742188 279.148438 261.847656 237.464844 C 266.058594 232.859375 269.824219 227.910156 273.140625 222.625 L 274.175781 223.277344 C 270.824219 228.625 267.019531 233.632812 262.757812 238.289062 C 224.183594 280.449219 158.507812 283.390625 116.339844 244.839844 Z M 116.339844 244.839844 " fill-opacity="1" fill-rule="nonzero"/></g></g></g><g clip-path="url(#5793160614)"><g clip-path="url(#bc5575e578)"><g clip-path="url(#e56eb21da8)"><path fill="#f5c6c6" d="M 142.105469 216.652344 C 141.210938 215.832031 140.335938 214.984375 139.484375 214.117188 C 138.632812 213.246094 137.808594 212.355469 137.007812 211.4375 C 136.207031 210.523438 135.429688 209.585938 134.683594 208.625 C 133.933594 207.667969 133.214844 206.6875 132.519531 205.6875 C 131.824219 204.6875 131.160156 203.671875 130.523438 202.632812 C 129.886719 201.597656 129.277344 200.542969 128.699219 199.472656 C 128.121094 198.402344 127.574219 197.316406 127.054688 196.214844 C 126.539062 195.117188 126.050781 194 125.59375 192.875 C 125.140625 191.746094 124.714844 190.605469 124.324219 189.453125 C 123.929688 188.300781 123.570312 187.140625 123.246094 185.96875 C 122.917969 184.796875 122.621094 183.617188 122.359375 182.429688 C 122.101562 181.238281 121.871094 180.046875 121.675781 178.84375 C 121.480469 177.644531 121.320312 176.4375 121.191406 175.226562 C 121.066406 174.019531 120.972656 172.804688 120.910156 171.589844 C 120.851562 170.375 120.824219 169.160156 120.832031 167.941406 C 120.84375 166.726562 120.882812 165.511719 120.960938 164.296875 C 121.035156 163.082031 121.144531 161.871094 121.289062 160.664062 C 121.429688 159.453125 121.609375 158.25 121.816406 157.054688 C 122.027344 155.855469 122.273438 154.664062 122.550781 153.476562 C 122.824219 152.292969 123.136719 151.117188 123.476562 149.949219 C 123.820312 148.78125 124.195312 147.625 124.601562 146.480469 C 125.007812 145.332031 125.449219 144.199219 125.917969 143.078125 C 126.386719 141.953125 126.890625 140.847656 127.421875 139.75 C 127.953125 138.65625 128.515625 137.578125 129.109375 136.515625 C 129.699219 135.453125 130.320312 134.410156 130.972656 133.378906 C 131.621094 132.351562 132.300781 131.34375 133.007812 130.351562 C 133.714844 129.363281 134.449219 128.394531 135.210938 127.441406 C 135.96875 126.492188 136.757812 125.566406 137.570312 124.660156 C 138.382812 123.753906 139.21875 122.875 140.082031 122.015625 C 140.945312 121.15625 141.828125 120.320312 142.738281 119.511719 C 143.644531 118.703125 144.574219 117.921875 145.527344 117.164062 C 146.480469 116.40625 147.453125 115.675781 148.445312 114.972656 C 149.4375 114.269531 150.449219 113.59375 151.480469 112.945312 C 152.511719 112.300781 153.558594 111.683594 154.625 111.09375 C 155.6875 110.503906 156.769531 109.949219 157.863281 109.417969 C 158.960938 108.890625 160.070312 108.394531 161.195312 107.929688 C 162.316406 107.460938 163.453125 107.027344 164.601562 106.625 C 165.75 106.222656 166.910156 105.851562 168.078125 105.511719 C 169.246094 105.175781 170.421875 104.871094 171.609375 104.597656 C 172.792969 104.324219 173.988281 104.085938 175.1875 103.878906 C 176.386719 103.671875 177.589844 103.5 178.796875 103.363281 C 180.007812 103.222656 181.21875 103.117188 182.433594 103.046875 C 183.648438 102.976562 184.863281 102.9375 186.078125 102.933594 C 187.296875 102.929688 188.511719 102.960938 189.726562 103.027344 C 190.941406 103.089844 192.152344 103.1875 193.363281 103.320312 C 194.574219 103.453125 195.777344 103.617188 196.976562 103.816406 C 198.179688 104.015625 199.371094 104.25 200.558594 104.515625 C 201.746094 104.78125 202.925781 105.078125 204.09375 105.410156 C 205.265625 105.742188 206.425781 106.105469 207.578125 106.5 C 208.726562 106.898438 209.867188 107.328125 210.992188 107.785156 C 212.117188 108.246094 213.230469 108.738281 214.332031 109.257812 C 215.429688 109.78125 216.511719 110.332031 217.582031 110.914062 C 218.648438 111.496094 219.699219 112.109375 220.734375 112.75 C 221.769531 113.390625 222.785156 114.058594 223.78125 114.757812 C 224.777344 115.453125 225.753906 116.179688 226.710938 116.929688 C 227.667969 117.683594 228.601562 118.460938 229.515625 119.265625 C 230.429688 120.070312 231.316406 120.898438 232.183594 121.753906 C 233.050781 122.605469 233.894531 123.484375 234.710938 124.382812 C 235.53125 125.285156 236.320312 126.207031 237.085938 127.152344 C 237.855469 128.097656 238.59375 129.0625 239.304688 130.050781 C 240.019531 131.035156 240.703125 132.042969 241.359375 133.066406 C 242.015625 134.089844 242.644531 135.132812 243.242188 136.191406 C 243.839844 137.25 244.40625 138.324219 244.945312 139.417969 C 245.484375 140.507812 245.992188 141.613281 246.46875 142.734375 L 245.359375 143.203125 C 244.910156 142.148438 244.433594 141.105469 243.929688 140.074219 C 243.425781 139.046875 242.894531 138.03125 242.335938 137.027344 C 241.777344 136.027344 241.191406 135.042969 240.578125 134.070312 C 239.96875 133.101562 239.332031 132.148438 238.667969 131.210938 C 238.003906 130.273438 237.316406 129.359375 236.605469 128.457031 C 235.894531 127.558594 235.160156 126.679688 234.398438 125.820312 C 233.640625 124.960938 232.859375 124.121094 232.054688 123.300781 C 231.25 122.484375 230.425781 121.6875 229.578125 120.914062 C 228.734375 120.140625 227.867188 119.390625 226.980469 118.664062 C 226.09375 117.933594 225.1875 117.230469 224.261719 116.554688 C 223.339844 115.875 222.398438 115.21875 221.4375 114.59375 C 220.476562 113.964844 219.503906 113.363281 218.511719 112.785156 C 217.519531 112.207031 216.511719 111.660156 215.492188 111.136719 C 214.46875 110.613281 213.4375 110.121094 212.386719 109.652344 C 211.339844 109.1875 210.28125 108.746094 209.210938 108.335938 C 208.140625 107.925781 207.058594 107.546875 205.964844 107.195312 C 204.875 106.84375 203.773438 106.519531 202.664062 106.226562 C 201.558594 105.933594 200.441406 105.667969 199.320312 105.433594 C 198.195312 105.203125 197.066406 105 195.933594 104.824219 C 194.800781 104.652344 193.660156 104.507812 192.519531 104.398438 C 191.378906 104.285156 190.234375 104.203125 189.089844 104.152344 C 187.945312 104.101562 186.796875 104.082031 185.652344 104.09375 C 184.503906 104.101562 183.359375 104.144531 182.214844 104.214844 C 181.070312 104.289062 179.925781 104.390625 178.789062 104.523438 C 177.648438 104.65625 176.511719 104.820312 175.382812 105.011719 C 174.253906 105.207031 173.128906 105.429688 172.007812 105.683594 C 170.890625 105.9375 169.78125 106.222656 168.675781 106.535156 C 167.574219 106.847656 166.480469 107.191406 165.394531 107.5625 C 164.308594 107.9375 163.234375 108.335938 162.171875 108.765625 C 161.109375 109.195312 160.058594 109.652344 159.019531 110.140625 C 157.980469 110.625 156.953125 111.140625 155.941406 111.679688 C 154.933594 112.222656 153.9375 112.789062 152.953125 113.382812 C 151.972656 113.976562 151.007812 114.597656 150.0625 115.242188 C 149.113281 115.890625 148.183594 116.558594 147.273438 117.253906 C 146.359375 117.949219 145.46875 118.671875 144.59375 119.414062 C 143.722656 120.15625 142.867188 120.921875 142.035156 121.710938 C 141.203125 122.503906 140.394531 123.3125 139.605469 124.144531 C 138.816406 124.976562 138.050781 125.832031 137.304688 126.703125 C 136.5625 127.578125 135.84375 128.472656 135.148438 129.382812 C 134.453125 130.296875 133.78125 131.226562 133.136719 132.171875 C 132.492188 133.121094 131.871094 134.085938 131.277344 135.066406 C 130.683594 136.046875 130.117188 137.046875 129.578125 138.054688 C 129.035156 139.066406 128.523438 140.09375 128.039062 141.132812 C 127.550781 142.171875 127.09375 143.222656 126.664062 144.285156 C 126.234375 145.351562 125.835938 146.425781 125.464844 147.507812 C 125.089844 148.59375 124.75 149.6875 124.4375 150.792969 C 124.125 151.894531 123.839844 153.007812 123.585938 154.125 C 123.332031 155.242188 123.109375 156.367188 122.914062 157.5 C 122.722656 158.628906 122.558594 159.765625 122.425781 160.902344 C 122.292969 162.042969 122.191406 163.183594 122.121094 164.328125 C 122.050781 165.472656 122.007812 166.621094 122 167.765625 C 121.988281 168.914062 122.007812 170.058594 122.058594 171.207031 C 122.113281 172.351562 122.195312 173.496094 122.304688 174.636719 C 122.417969 175.777344 122.5625 176.914062 122.734375 178.050781 C 122.910156 179.183594 123.113281 180.3125 123.347656 181.433594 C 123.582031 182.558594 123.84375 183.671875 124.136719 184.78125 C 124.433594 185.890625 124.753906 186.988281 125.109375 188.082031 C 125.460938 189.171875 125.84375 190.253906 126.253906 191.324219 C 126.664062 192.394531 127.101562 193.453125 127.570312 194.503906 C 128.035156 195.550781 128.53125 196.585938 129.054688 197.605469 C 129.578125 198.625 130.125 199.632812 130.703125 200.625 C 131.28125 201.613281 131.882812 202.589844 132.511719 203.550781 C 133.140625 204.507812 133.792969 205.449219 134.472656 206.375 C 135.152344 207.296875 135.855469 208.203125 136.585938 209.089844 C 137.3125 209.976562 138.0625 210.84375 138.835938 211.691406 C 139.609375 212.535156 140.40625 213.359375 141.226562 214.164062 C 142.042969 214.96875 142.882812 215.75 143.742188 216.507812 C 144.605469 217.265625 145.484375 218 146.382812 218.714844 C 147.28125 219.425781 148.199219 220.113281 149.136719 220.773438 C 150.074219 221.4375 151.027344 222.074219 151.996094 222.683594 C 152.96875 223.296875 153.953125 223.878906 154.957031 224.4375 C 155.957031 224.996094 156.972656 225.527344 158.003906 226.03125 C 159.035156 226.539062 160.078125 227.011719 161.132812 227.460938 C 162.1875 227.910156 163.253906 228.328125 164.332031 228.71875 C 165.410156 229.113281 166.5 229.472656 167.597656 229.804688 C 168.695312 230.140625 169.800781 230.441406 170.914062 230.714844 C 172.027344 230.988281 173.148438 231.234375 174.273438 231.445312 C 175.402344 231.660156 176.535156 231.84375 177.671875 231.996094 C 178.808594 232.148438 179.949219 232.269531 181.089844 232.363281 C 182.234375 232.457031 183.378906 232.515625 184.523438 232.546875 C 185.671875 232.578125 186.820312 232.578125 187.964844 232.546875 C 189.113281 232.515625 190.257812 232.453125 191.398438 232.363281 C 192.542969 232.269531 193.683594 232.148438 194.820312 231.992188 C 195.957031 231.839844 197.085938 231.65625 198.214844 231.441406 C 199.339844 231.230469 200.460938 230.984375 201.574219 230.710938 C 202.6875 230.4375 203.792969 230.132812 204.890625 229.800781 C 205.988281 229.46875 207.078125 229.105469 208.15625 228.714844 C 209.234375 228.324219 210.300781 227.902344 211.355469 227.453125 C 212.410156 227.007812 213.453125 226.53125 214.484375 226.027344 C 215.515625 225.519531 216.53125 224.988281 217.53125 224.429688 C 218.535156 223.871094 219.519531 223.285156 220.492188 222.675781 C 221.460938 222.0625 222.414062 221.425781 223.351562 220.765625 C 224.285156 220.101562 225.203125 219.414062 226.101562 218.703125 C 227.003906 217.992188 227.882812 217.253906 228.742188 216.496094 C 229.601562 215.738281 230.441406 214.957031 231.257812 214.152344 C 232.078125 213.347656 232.875 212.523438 233.648438 211.675781 C 236.289062 208.789062 238.648438 205.6875 240.726562 202.371094 L 241.761719 203.023438 C 239.644531 206.398438 237.238281 209.558594 234.550781 212.503906 C 233.828125 213.292969 233.085938 214.0625 232.324219 214.816406 C 231.5625 215.570312 230.785156 216.300781 229.988281 217.015625 C 229.191406 217.730469 228.375 218.425781 227.546875 219.101562 C 226.714844 219.777344 225.867188 220.429688 225.003906 221.0625 C 224.140625 221.699219 223.261719 222.308594 222.371094 222.898438 C 221.476562 223.488281 220.570312 224.058594 219.648438 224.605469 C 218.726562 225.148438 217.792969 225.671875 216.847656 226.171875 C 215.902344 226.671875 214.941406 227.148438 213.972656 227.601562 C 213.003906 228.054688 212.023438 228.484375 211.03125 228.890625 C 210.039062 229.292969 209.039062 229.675781 208.03125 230.03125 C 207.019531 230.386719 206.003906 230.71875 204.976562 231.023438 C 203.953125 231.332031 202.917969 231.609375 201.878906 231.867188 C 200.839844 232.121094 199.792969 232.351562 198.742188 232.554688 C 197.691406 232.761719 196.636719 232.9375 195.578125 233.089844 C 194.519531 233.242188 193.457031 233.371094 192.390625 233.46875 C 191.324219 233.570312 190.257812 233.644531 189.1875 233.691406 C 188.117188 233.742188 187.046875 233.761719 185.976562 233.757812 C 184.90625 233.753906 183.835938 233.722656 182.765625 233.667969 C 181.699219 233.609375 180.632812 233.527344 179.566406 233.417969 C 178.5 233.308594 177.441406 233.171875 176.382812 233.011719 C 175.324219 232.851562 174.269531 232.664062 173.21875 232.449219 C 172.171875 232.238281 171.128906 232 170.089844 231.734375 C 169.054688 231.472656 168.023438 231.179688 167 230.867188 C 165.976562 230.550781 164.960938 230.210938 163.953125 229.847656 C 162.949219 229.484375 161.949219 229.09375 160.964844 228.683594 C 159.976562 228.269531 159 227.832031 158.03125 227.371094 C 157.066406 226.910156 156.113281 226.425781 155.167969 225.917969 C 154.226562 225.410156 153.296875 224.878906 152.382812 224.324219 C 151.464844 223.773438 150.5625 223.195312 149.675781 222.597656 C 148.785156 222 147.914062 221.382812 147.054688 220.742188 C 146.199219 220.101562 145.355469 219.4375 144.53125 218.757812 C 143.707031 218.074219 142.898438 217.375 142.105469 216.652344 Z M 142.105469 216.652344 " fill-opacity="1" fill-rule="nonzero"/></g></g></g><g clip-path="url(#f57489a7ea)"><g clip-path="url(#ff9b6e7089)"><g clip-path="url(#38125de076)"><path fill="#f5c6c6" d="M 243.210938 153.125 C 242.902344 152.84375 242.621094 152.53125 242.371094 152.191406 C 242.121094 151.851562 241.910156 151.492188 241.730469 151.113281 C 241.554688 150.730469 241.414062 150.335938 241.3125 149.925781 C 241.214844 149.519531 241.152344 149.105469 241.132812 148.683594 C 241.117188 148.265625 241.136719 147.847656 241.203125 147.429688 C 241.265625 147.015625 241.367188 146.609375 241.511719 146.214844 C 241.65625 145.820312 241.835938 145.441406 242.054688 145.082031 C 242.273438 144.722656 242.523438 144.386719 242.808594 144.078125 C 243.089844 143.765625 243.402344 143.488281 243.742188 143.238281 C 244.082031 142.988281 244.441406 142.773438 244.820312 142.597656 C 245.203125 142.417969 245.597656 142.28125 246.003906 142.179688 C 246.414062 142.078125 246.828125 142.019531 247.25 142 C 247.667969 141.984375 248.085938 142.003906 248.503906 142.070312 C 248.917969 142.132812 249.324219 142.238281 249.71875 142.378906 C 250.113281 142.523438 250.492188 142.703125 250.851562 142.921875 C 251.210938 143.140625 251.546875 143.390625 251.855469 143.675781 C 252.167969 143.960938 252.445312 144.269531 252.695312 144.609375 C 252.945312 144.949219 253.15625 145.308594 253.335938 145.691406 C 253.511719 146.070312 253.652344 146.464844 253.753906 146.875 C 253.851562 147.28125 253.910156 147.699219 253.929688 148.117188 C 253.949219 148.539062 253.925781 148.957031 253.863281 149.371094 C 253.796875 149.785156 253.695312 150.191406 253.550781 150.585938 C 253.40625 150.984375 253.226562 151.359375 253.007812 151.71875 C 252.789062 152.078125 252.539062 152.414062 252.253906 152.726562 C 251.972656 153.035156 251.660156 153.3125 251.320312 153.5625 C 250.980469 153.8125 250.621094 154.023438 250.242188 154.203125 C 249.859375 154.378906 249.464844 154.519531 249.058594 154.617188 C 248.648438 154.71875 248.234375 154.777344 247.816406 154.796875 C 247.394531 154.816406 246.980469 154.792969 246.5625 154.730469 C 246.148438 154.664062 245.742188 154.5625 245.347656 154.417969 C 244.953125 154.277344 244.574219 154.09375 244.214844 153.878906 C 243.855469 153.660156 243.519531 153.410156 243.210938 153.125 Z M 251.035156 144.566406 C 250.785156 144.335938 250.511719 144.132812 250.21875 143.957031 C 249.929688 143.777344 249.621094 143.632812 249.300781 143.515625 C 248.980469 143.398438 248.652344 143.316406 248.3125 143.265625 C 247.976562 143.210938 247.636719 143.195312 247.296875 143.210938 C 246.953125 143.226562 246.617188 143.273438 246.285156 143.355469 C 245.957031 143.4375 245.636719 143.550781 245.324219 143.695312 C 245.015625 143.839844 244.722656 144.011719 244.449219 144.214844 C 244.175781 144.417969 243.921875 144.644531 243.691406 144.894531 C 243.460938 145.148438 243.257812 145.417969 243.082031 145.710938 C 242.902344 146.003906 242.757812 146.308594 242.640625 146.632812 C 242.523438 146.953125 242.441406 147.28125 242.390625 147.617188 C 242.335938 147.957031 242.320312 148.296875 242.335938 148.636719 C 242.351562 148.976562 242.398438 149.3125 242.480469 149.644531 C 242.5625 149.976562 242.675781 150.296875 242.820312 150.605469 C 242.964844 150.914062 243.136719 151.207031 243.339844 151.484375 C 243.542969 151.757812 243.769531 152.011719 244.019531 152.242188 C 244.273438 152.472656 244.542969 152.675781 244.835938 152.851562 C 245.128906 153.027344 245.433594 153.175781 245.753906 153.292969 C 246.078125 153.40625 246.40625 153.492188 246.742188 153.542969 C 247.082031 153.59375 247.421875 153.613281 247.761719 153.597656 C 248.101562 153.582031 248.4375 153.535156 248.769531 153.453125 C 249.101562 153.371094 249.421875 153.257812 249.730469 153.113281 C 250.039062 152.96875 250.332031 152.796875 250.609375 152.59375 C 250.882812 152.390625 251.136719 152.164062 251.367188 151.910156 C 251.59375 151.660156 251.800781 151.386719 251.976562 151.09375 C 252.152344 150.804688 252.296875 150.496094 252.414062 150.175781 C 252.53125 149.855469 252.613281 149.527344 252.664062 149.1875 C 252.71875 148.851562 252.734375 148.511719 252.71875 148.171875 C 252.703125 147.828125 252.65625 147.492188 252.574219 147.164062 C 252.492188 146.832031 252.378906 146.511719 252.234375 146.203125 C 252.089844 145.890625 251.917969 145.601562 251.714844 145.324219 C 251.515625 145.050781 251.289062 144.796875 251.035156 144.566406 Z M 251.035156 144.566406 " fill-opacity="1" fill-rule="nonzero"/></g></g></g><g clip-path="url(#a4b14bb76a)"><g clip-path="url(#ad2ac09087)"><g clip-path="url(#e48d9a18aa)"><path fill="#f5c6c6" d="M 269.878906 221.4375 C 269.230469 220.84375 268.644531 220.195312 268.121094 219.484375 C 267.601562 218.777344 267.152344 218.023438 266.78125 217.226562 C 266.40625 216.429688 266.117188 215.601562 265.90625 214.746094 C 265.695312 213.894531 265.570312 213.027344 265.53125 212.148438 C 265.492188 211.265625 265.539062 210.394531 265.671875 209.523438 C 265.804688 208.652344 266.019531 207.804688 266.320312 206.976562 C 266.621094 206.148438 267 205.359375 267.453125 204.605469 C 267.910156 203.851562 268.433594 203.152344 269.03125 202.503906 C 269.625 201.851562 270.277344 201.269531 270.984375 200.746094 C 271.695312 200.226562 272.449219 199.777344 273.246094 199.40625 C 274.042969 199.035156 274.867188 198.742188 275.722656 198.53125 C 276.578125 198.324219 277.445312 198.199219 278.324219 198.160156 C 279.203125 198.121094 280.078125 198.167969 280.949219 198.300781 C 281.820312 198.4375 282.667969 198.652344 283.496094 198.953125 C 284.320312 199.253906 285.113281 199.632812 285.863281 200.089844 C 286.617188 200.546875 287.316406 201.070312 287.96875 201.667969 C 288.617188 202.261719 289.199219 202.914062 289.722656 203.625 C 290.242188 204.332031 290.6875 205.085938 291.058594 205.882812 C 291.429688 206.683594 291.722656 207.507812 291.929688 208.363281 C 292.140625 209.21875 292.265625 210.085938 292.300781 210.964844 C 292.339844 211.84375 292.292969 212.71875 292.15625 213.589844 C 292.023438 214.460938 291.804688 215.308594 291.503906 216.132812 C 291.203125 216.960938 290.824219 217.75 290.367188 218.503906 C 289.910156 219.253906 289.382812 219.957031 288.789062 220.605469 C 288.195312 221.25 287.542969 221.832031 286.832031 222.351562 C 286.125 222.871094 285.371094 223.316406 284.574219 223.6875 C 283.78125 224.058594 282.957031 224.347656 282.101562 224.554688 C 281.25 224.765625 280.382812 224.886719 279.507812 224.925781 C 278.628906 224.964844 277.757812 224.917969 276.886719 224.785156 C 276.019531 224.652344 275.171875 224.4375 274.347656 224.136719 C 273.519531 223.839844 272.730469 223.460938 271.980469 223.007812 C 271.230469 222.554688 270.527344 222.03125 269.878906 221.4375 Z M 287.144531 202.554688 C 286.554688 202.015625 285.914062 201.535156 285.230469 201.121094 C 284.546875 200.707031 283.828125 200.363281 283.074219 200.089844 C 282.324219 199.816406 281.550781 199.617188 280.761719 199.496094 C 279.96875 199.375 279.171875 199.332031 278.375 199.367188 C 277.574219 199.402344 276.785156 199.515625 276.007812 199.707031 C 275.230469 199.898438 274.480469 200.164062 273.753906 200.5 C 273.027344 200.839844 272.34375 201.246094 271.699219 201.71875 C 271.050781 202.191406 270.460938 202.726562 269.917969 203.316406 C 269.378906 203.90625 268.898438 204.542969 268.484375 205.226562 C 268.070312 205.910156 267.726562 206.628906 267.453125 207.382812 C 267.179688 208.136719 266.980469 208.90625 266.859375 209.699219 C 266.738281 210.488281 266.695312 211.285156 266.730469 212.085938 C 266.765625 212.882812 266.878906 213.671875 267.066406 214.449219 C 267.257812 215.226562 267.523438 215.980469 267.859375 216.703125 C 268.199219 217.429688 268.605469 218.117188 269.078125 218.761719 C 269.550781 219.40625 270.082031 220 270.671875 220.539062 C 271.265625 221.082031 271.902344 221.558594 272.585938 221.976562 C 273.269531 222.390625 273.988281 222.734375 274.738281 223.007812 C 275.492188 223.28125 276.265625 223.480469 277.054688 223.601562 C 277.847656 223.722656 278.640625 223.765625 279.441406 223.734375 C 280.242188 223.699219 281.03125 223.585938 281.808594 223.394531 C 282.585938 223.207031 283.335938 222.941406 284.0625 222.601562 C 284.789062 222.265625 285.472656 221.859375 286.117188 221.386719 C 286.765625 220.914062 287.359375 220.382812 287.898438 219.792969 C 288.441406 219.199219 288.917969 218.5625 289.332031 217.878906 C 289.746094 217.191406 290.09375 216.472656 290.367188 215.722656 C 290.640625 214.96875 290.835938 214.195312 290.957031 213.40625 C 291.082031 212.613281 291.125 211.816406 291.089844 211.015625 C 291.054688 210.214844 290.941406 209.425781 290.75 208.648438 C 290.558594 207.871094 290.296875 207.121094 289.957031 206.394531 C 289.617188 205.667969 289.214844 204.980469 288.738281 204.335938 C 288.265625 203.691406 287.734375 203.097656 287.144531 202.554688 Z M 287.144531 202.554688 " fill-opacity="1" fill-rule="nonzero"/></g></g></g><g clip-path="url(#ab73c2004d)"><g clip-path="url(#f24d5c497e)"><g clip-path="url(#04563afb9f)"><path fill="#f5c6c6" d="M 104.835938 229.261719 C 104.632812 229.480469 104.410156 229.679688 104.171875 229.855469 C 103.929688 230.035156 103.675781 230.183594 103.40625 230.3125 C 103.132812 230.4375 102.855469 230.539062 102.5625 230.609375 C 102.273438 230.679688 101.980469 230.722656 101.679688 230.734375 C 101.382812 230.75 101.085938 230.734375 100.789062 230.6875 C 100.496094 230.644531 100.207031 230.570312 99.925781 230.46875 C 99.644531 230.367188 99.378906 230.238281 99.121094 230.082031 C 98.867188 229.929688 98.628906 229.75 98.410156 229.546875 C 98.1875 229.347656 97.988281 229.125 97.8125 228.886719 C 97.636719 228.644531 97.484375 228.390625 97.355469 228.117188 C 97.230469 227.847656 97.132812 227.566406 97.0625 227.277344 C 96.988281 226.988281 96.945312 226.695312 96.933594 226.394531 C 96.921875 226.097656 96.9375 225.800781 96.980469 225.503906 C 97.027344 225.210938 97.101562 224.921875 97.203125 224.640625 C 97.304688 224.359375 97.429688 224.09375 97.585938 223.835938 C 97.742188 223.582031 97.917969 223.34375 98.121094 223.121094 C 98.320312 222.902344 98.542969 222.703125 98.785156 222.527344 C 99.023438 222.351562 99.28125 222.199219 99.550781 222.070312 C 99.820312 221.945312 100.101562 221.847656 100.390625 221.773438 C 100.679688 221.703125 100.976562 221.660156 101.273438 221.648438 C 101.574219 221.632812 101.867188 221.648438 102.164062 221.695312 C 102.460938 221.742188 102.746094 221.8125 103.027344 221.914062 C 103.308594 222.015625 103.578125 222.144531 103.832031 222.300781 C 104.089844 222.453125 104.328125 222.632812 104.546875 222.835938 C 104.765625 223.035156 104.964844 223.257812 105.144531 223.496094 C 105.320312 223.738281 105.472656 223.992188 105.597656 224.265625 C 105.722656 224.535156 105.824219 224.816406 105.894531 225.105469 C 105.964844 225.394531 106.007812 225.691406 106.023438 225.988281 C 106.035156 226.285156 106.019531 226.582031 105.972656 226.878906 C 105.929688 227.171875 105.855469 227.460938 105.753906 227.742188 C 105.652344 228.023438 105.523438 228.292969 105.367188 228.546875 C 105.214844 228.800781 105.035156 229.039062 104.835938 229.261719 Z M 104.835938 229.261719 " fill-opacity="1" fill-rule="nonzero"/></g></g></g><g clip-path="url(#7af0d2ffb4)"><g clip-path="url(#7fa2646743)"><g clip-path="url(#fea91fb593)"><path fill="#f5c6c6" d="M 95.945312 215.984375 C 95.710938 216.242188 95.433594 216.441406 95.121094 216.589844 C 94.804688 216.738281 94.472656 216.820312 94.125 216.835938 C 93.777344 216.851562 93.4375 216.800781 93.113281 216.679688 C 92.785156 216.5625 92.492188 216.382812 92.234375 216.148438 C 91.976562 215.914062 91.773438 215.640625 91.628906 215.324219 C 91.480469 215.007812 91.398438 214.675781 91.382812 214.328125 C 91.367188 213.980469 91.417969 213.644531 91.539062 213.316406 C 91.65625 212.988281 91.832031 212.695312 92.066406 212.4375 C 92.304688 212.179688 92.578125 211.980469 92.894531 211.832031 C 93.210938 211.683594 93.542969 211.601562 93.890625 211.585938 C 94.238281 211.570312 94.574219 211.621094 94.902344 211.742188 C 95.230469 211.859375 95.523438 212.039062 95.78125 212.273438 C 96.035156 212.507812 96.238281 212.78125 96.386719 213.097656 C 96.535156 213.414062 96.617188 213.746094 96.632812 214.09375 C 96.648438 214.441406 96.59375 214.777344 96.476562 215.105469 C 96.359375 215.433594 96.179688 215.726562 95.945312 215.984375 Z M 95.945312 215.984375 " fill-opacity="1" fill-rule="nonzero"/></g></g></g><g clip-path="url(#fed2f84671)"><g clip-path="url(#afc22a6ef2)"><g clip-path="url(#6564e3ee8a)"><path fill="#f5c6c6" d="M 117.386719 243.691406 C 117.132812 243.972656 116.851562 244.222656 116.546875 244.449219 C 116.242188 244.671875 115.914062 244.863281 115.574219 245.023438 C 115.230469 245.1875 114.875 245.3125 114.503906 245.402344 C 114.136719 245.492188 113.765625 245.546875 113.386719 245.5625 C 113.007812 245.578125 112.628906 245.558594 112.257812 245.503906 C 111.882812 245.445312 111.515625 245.351562 111.160156 245.222656 C 110.804688 245.09375 110.464844 244.929688 110.140625 244.734375 C 109.816406 244.539062 109.511719 244.3125 109.234375 244.058594 C 108.953125 243.800781 108.703125 243.519531 108.476562 243.214844 C 108.253906 242.910156 108.058594 242.585938 107.898438 242.242188 C 107.738281 241.898438 107.613281 241.542969 107.523438 241.175781 C 107.433594 240.808594 107.378906 240.433594 107.363281 240.054688 C 107.34375 239.675781 107.363281 239.300781 107.421875 238.925781 C 107.480469 238.550781 107.574219 238.1875 107.703125 237.828125 C 107.832031 237.472656 107.992188 237.132812 108.191406 236.808594 C 108.386719 236.484375 108.613281 236.183594 108.867188 235.902344 C 109.125 235.625 109.402344 235.371094 109.710938 235.148438 C 110.015625 234.921875 110.339844 234.730469 110.683594 234.570312 C 111.027344 234.410156 111.382812 234.28125 111.75 234.191406 C 112.117188 234.101562 112.492188 234.046875 112.871094 234.03125 C 113.246094 234.015625 113.625 234.035156 114 234.09375 C 114.375 234.148438 114.738281 234.242188 115.09375 234.371094 C 115.453125 234.5 115.792969 234.664062 116.117188 234.859375 C 116.441406 235.054688 116.742188 235.28125 117.023438 235.539062 C 117.300781 235.792969 117.554688 236.074219 117.777344 236.378906 C 118.003906 236.683594 118.195312 237.007812 118.355469 237.351562 C 118.515625 237.695312 118.640625 238.050781 118.730469 238.417969 C 118.824219 238.785156 118.875 239.160156 118.894531 239.539062 C 118.910156 239.917969 118.890625 240.292969 118.832031 240.667969 C 118.777344 241.042969 118.683594 241.410156 118.554688 241.765625 C 118.425781 242.121094 118.261719 242.460938 118.066406 242.785156 C 117.867188 243.109375 117.644531 243.410156 117.386719 243.691406 Z M 117.386719 243.691406 " fill-opacity="1" fill-rule="nonzero"/></g></g></g><g fill="#fdfaf7" fill-opacity="1"><g transform="translate(151.157155, 202.265178)"><g><path d="M 42.050781 1.300781 L 42.179688 1.300781 C 51.03125 1.300781 62.488281 -2.082031 68.738281 -13.667969 L 67.175781 -13.667969 C 58.972656 -1.042969 49.078125 -0.390625 43.480469 -0.390625 C 29.683594 -0.390625 24.605469 -15.492188 24.605469 -36.320312 C 24.605469 -53.765625 28.378906 -72.121094 43.089844 -72.121094 C 49.601562 -72.121094 54.9375 -67.566406 53.375 -58.972656 C 52.59375 -54.546875 48.429688 -54.027344 48.429688 -54.027344 C 48.429688 -48.296875 52.855469 -43.222656 59.753906 -43.222656 C 65.222656 -43.222656 69.390625 -46.867188 69.390625 -52.464844 C 69.390625 -63.660156 55.199219 -73.816406 42.441406 -73.816406 C 20.570312 -73.816406 3.253906 -56.890625 3.253906 -36.191406 C 3.253906 -15.492188 20.570312 1.300781 42.050781 1.300781 Z M 42.050781 1.300781 "/></g></g></g><g fill="#fdfaf7" fill-opacity="1"><g transform="translate(12.951458, 345.998194)"><g><path d="M 2.9375 -18.03125 L 4.84375 -18.03125 L 4.84375 -1.640625 L 14.9375 -1.640625 L 14.9375 0 L 2.9375 0 Z M 2.9375 -18.03125 "/></g></g></g><g fill="#fdfaf7" fill-opacity="1"><g transform="translate(33.267121, 345.998194)"><g><path d="M 14.234375 -4.8125 L 4.203125 -4.8125 L 2.03125 0 L 0.046875 0 L 8.296875 -18.03125 L 10.171875 -18.03125 L 18.40625 0 L 16.40625 0 Z M 13.546875 -6.359375 L 9.21875 -16.046875 L 4.890625 -6.359375 Z M 13.546875 -6.359375 "/></g></g></g><g fill="#fdfaf7" fill-opacity="1"><g transform="translate(68.774474, 345.998194)"><g><path d="M 10.765625 0.15625 C 8.972656 0.15625 7.359375 -0.238281 5.921875 -1.03125 C 4.492188 -1.820312 3.375 -2.914062 2.5625 -4.3125 C 1.75 -5.707031 1.34375 -7.273438 1.34375 -9.015625 C 1.34375 -10.742188 1.75 -12.304688 2.5625 -13.703125 C 3.375 -15.109375 4.5 -16.203125 5.9375 -16.984375 C 7.382812 -17.773438 9.003906 -18.171875 10.796875 -18.171875 C 12.128906 -18.171875 13.363281 -17.945312 14.5 -17.5 C 15.632812 -17.0625 16.59375 -16.410156 17.375 -15.546875 L 16.171875 -14.34375 C 14.765625 -15.769531 12.988281 -16.484375 10.84375 -16.484375 C 9.414062 -16.484375 8.117188 -16.15625 6.953125 -15.5 C 5.785156 -14.84375 4.867188 -13.945312 4.203125 -12.8125 C 3.546875 -11.6875 3.21875 -10.421875 3.21875 -9.015625 C 3.21875 -7.609375 3.546875 -6.335938 4.203125 -5.203125 C 4.867188 -4.066406 5.785156 -3.171875 6.953125 -2.515625 C 8.117188 -1.867188 9.414062 -1.546875 10.84375 -1.546875 C 13 -1.546875 14.773438 -2.265625 16.171875 -3.703125 L 17.375 -2.5 C 16.59375 -1.632812 15.628906 -0.972656 14.484375 -0.515625 C 13.335938 -0.0664062 12.097656 0.15625 10.765625 0.15625 Z M 10.765625 0.15625 "/></g></g></g><g fill="#fdfaf7" fill-opacity="1"><g transform="translate(92.43746, 345.998194)"><g><path d="M 2.9375 -18.03125 L 4.84375 -18.03125 L 4.84375 0 L 2.9375 0 Z M 2.9375 -18.03125 "/></g></g></g><g fill="#fdfaf7" fill-opacity="1"><g transform="translate(105.363287, 345.998194)"><g><path d="M 15.25 0 L 11.125 -5.796875 C 10.65625 -5.742188 10.175781 -5.71875 9.6875 -5.71875 L 4.84375 -5.71875 L 4.84375 0 L 2.9375 0 L 2.9375 -18.03125 L 9.6875 -18.03125 C 11.976562 -18.03125 13.773438 -17.476562 15.078125 -16.375 C 16.390625 -15.28125 17.046875 -13.769531 17.046875 -11.84375 C 17.046875 -10.4375 16.6875 -9.25 15.96875 -8.28125 C 15.257812 -7.3125 14.242188 -6.613281 12.921875 -6.1875 L 17.328125 0 Z M 9.625 -7.34375 C 11.414062 -7.34375 12.78125 -7.734375 13.71875 -8.515625 C 14.664062 -9.304688 15.140625 -10.414062 15.140625 -11.84375 C 15.140625 -13.300781 14.664062 -14.421875 13.71875 -15.203125 C 12.78125 -15.984375 11.414062 -16.375 9.625 -16.375 L 4.84375 -16.375 L 4.84375 -7.34375 Z M 9.625 -7.34375 "/></g></g></g><g fill="#fdfaf7" fill-opacity="1"><g transform="translate(129.129265, 345.998194)"><g><path d="M 15.6875 -1.640625 L 15.6875 0 L 2.9375 0 L 2.9375 -18.03125 L 15.296875 -18.03125 L 15.296875 -16.375 L 4.84375 -16.375 L 4.84375 -9.96875 L 14.15625 -9.96875 L 14.15625 -8.34375 L 4.84375 -8.34375 L 4.84375 -1.640625 Z M 15.6875 -1.640625 "/></g></g></g><g fill="#fdfaf7" fill-opacity="1"><g transform="translate(151.504825, 345.998194)"><g><path d="M 15.25 0 L 11.125 -5.796875 C 10.65625 -5.742188 10.175781 -5.71875 9.6875 -5.71875 L 4.84375 -5.71875 L 4.84375 0 L 2.9375 0 L 2.9375 -18.03125 L 9.6875 -18.03125 C 11.976562 -18.03125 13.773438 -17.476562 15.078125 -16.375 C 16.390625 -15.28125 17.046875 -13.769531 17.046875 -11.84375 C 17.046875 -10.4375 16.6875 -9.25 15.96875 -8.28125 C 15.257812 -7.3125 14.242188 -6.613281 12.921875 -6.1875 L 17.328125 0 Z M 9.625 -7.34375 C 11.414062 -7.34375 12.78125 -7.734375 13.71875 -8.515625 C 14.664062 -9.304688 15.140625 -10.414062 15.140625 -11.84375 C 15.140625 -13.300781 14.664062 -14.421875 13.71875 -15.203125 C 12.78125 -15.984375 11.414062 -16.375 9.625 -16.375 L 4.84375 -16.375 L 4.84375 -7.34375 Z M 9.625 -7.34375 "/></g></g></g><g fill="#fdfaf7" fill-opacity="1"><g transform="translate(175.270803, 345.998194)"><g><path d="M 15.6875 -1.640625 L 15.6875 0 L 2.9375 0 L 2.9375 -18.03125 L 15.296875 -18.03125 L 15.296875 -16.375 L 4.84375 -16.375 L 4.84375 -9.96875 L 14.15625 -9.96875 L 14.15625 -8.34375 L 4.84375 -8.34375 L 4.84375 -1.640625 Z M 15.6875 -1.640625 "/></g></g></g><g fill="#fdfaf7" fill-opacity="1"><g transform="translate(197.646362, 345.998194)"><g><path d="M 6.4375 -16.375 L 0.109375 -16.375 L 0.109375 -18.03125 L 14.671875 -18.03125 L 14.671875 -16.375 L 8.34375 -16.375 L 8.34375 0 L 6.4375 0 Z M 6.4375 -16.375 "/></g></g></g><g fill="#fdfaf7" fill-opacity="1"><g transform="translate(217.575798, 345.998194)"><g><path d="M 14.234375 -4.8125 L 4.203125 -4.8125 L 2.03125 0 L 0.046875 0 L 8.296875 -18.03125 L 10.171875 -18.03125 L 18.40625 0 L 16.40625 0 Z M 13.546875 -6.359375 L 9.21875 -16.046875 L 4.890625 -6.359375 Z M 13.546875 -6.359375 "/></g></g></g><g fill="#fdfaf7" fill-opacity="1"><g transform="translate(253.083159, 345.998194)"><g><path d="M 10.765625 0.15625 C 8.972656 0.15625 7.359375 -0.238281 5.921875 -1.03125 C 4.492188 -1.820312 3.375 -2.914062 2.5625 -4.3125 C 1.75 -5.707031 1.34375 -7.273438 1.34375 -9.015625 C 1.34375 -10.742188 1.75 -12.304688 2.5625 -13.703125 C 3.375 -15.109375 4.5 -16.203125 5.9375 -16.984375 C 7.382812 -17.773438 9.003906 -18.171875 10.796875 -18.171875 C 12.128906 -18.171875 13.363281 -17.945312 14.5 -17.5 C 15.632812 -17.0625 16.59375 -16.410156 17.375 -15.546875 L 16.171875 -14.34375 C 14.765625 -15.769531 12.988281 -16.484375 10.84375 -16.484375 C 9.414062 -16.484375 8.117188 -16.15625 6.953125 -15.5 C 5.785156 -14.84375 4.867188 -13.945312 4.203125 -12.8125 C 3.546875 -11.6875 3.21875 -10.421875 3.21875 -9.015625 C 3.21875 -7.609375 3.546875 -6.335938 4.203125 -5.203125 C 4.867188 -4.066406 5.785156 -3.171875 6.953125 -2.515625 C 8.117188 -1.867188 9.414062 -1.546875 10.84375 -1.546875 C 13 -1.546875 14.773438 -2.265625 16.171875 -3.703125 L 17.375 -2.5 C 16.59375 -1.632812 15.628906 -0.972656 14.484375 -0.515625 C 13.335938 -0.0664062 12.097656 0.15625 10.765625 0.15625 Z M 10.765625 0.15625 "/></g></g></g><g fill="#fdfaf7" fill-opacity="1"><g transform="translate(276.74615, 345.998194)"><g><path d="M 14.234375 -4.8125 L 4.203125 -4.8125 L 2.03125 0 L 0.046875 0 L 8.296875 -18.03125 L 10.171875 -18.03125 L 18.40625 0 L 16.40625 0 Z M 13.546875 -6.359375 L 9.21875 -16.046875 L 4.890625 -6.359375 Z M 13.546875 -6.359375 "/></g></g></g><g fill="#fdfaf7" fill-opacity="1"><g transform="translate(300.357639, 345.998194)"><g><path d="M 8.515625 -8.46875 L 4.84375 -4.734375 L 4.84375 0 L 2.9375 0 L 2.9375 -18.03125 L 4.84375 -18.03125 L 4.84375 -7.125 L 15.421875 -18.03125 L 17.609375 -18.03125 L 9.8125 -9.859375 L 18.15625 0 L 15.890625 0 Z M 8.515625 -8.46875 "/></g></g></g><g fill="#fdfaf7" fill-opacity="1"><g transform="translate(323.814639, 345.998194)"><g><path d="M 15.6875 -1.640625 L 15.6875 0 L 2.9375 0 L 2.9375 -18.03125 L 15.296875 -18.03125 L 15.296875 -16.375 L 4.84375 -16.375 L 4.84375 -9.96875 L 14.15625 -9.96875 L 14.15625 -8.34375 L 4.84375 -8.34375 L 4.84375 -1.640625 Z M 15.6875 -1.640625 "/></g></g></g><g fill="#fdfaf7" fill-opacity="1"><g transform="translate(346.190198, 345.998194)"><g><path d="M 7.90625 0.15625 C 6.5625 0.15625 5.273438 -0.0546875 4.046875 -0.484375 C 2.828125 -0.921875 1.878906 -1.488281 1.203125 -2.1875 L 1.953125 -3.65625 C 2.609375 -3 3.476562 -2.46875 4.5625 -2.0625 C 5.644531 -1.664062 6.757812 -1.46875 7.90625 -1.46875 C 9.519531 -1.46875 10.726562 -1.765625 11.53125 -2.359375 C 12.34375 -2.953125 12.75 -3.71875 12.75 -4.65625 C 12.75 -5.382812 12.53125 -5.960938 12.09375 -6.390625 C 11.65625 -6.816406 11.117188 -7.144531 10.484375 -7.375 C 9.847656 -7.601562 8.960938 -7.859375 7.828125 -8.140625 C 6.472656 -8.484375 5.390625 -8.8125 4.578125 -9.125 C 3.773438 -9.445312 3.082031 -9.929688 2.5 -10.578125 C 1.925781 -11.234375 1.640625 -12.117188 1.640625 -13.234375 C 1.640625 -14.140625 1.878906 -14.96875 2.359375 -15.71875 C 2.847656 -16.46875 3.585938 -17.0625 4.578125 -17.5 C 5.578125 -17.945312 6.816406 -18.171875 8.296875 -18.171875 C 9.328125 -18.171875 10.332031 -18.03125 11.3125 -17.75 C 12.300781 -17.46875 13.15625 -17.078125 13.875 -16.578125 L 13.234375 -15.0625 C 12.484375 -15.5625 11.675781 -15.9375 10.8125 -16.1875 C 9.957031 -16.4375 9.117188 -16.5625 8.296875 -16.5625 C 6.710938 -16.5625 5.519531 -16.253906 4.71875 -15.640625 C 3.925781 -15.035156 3.53125 -14.25 3.53125 -13.28125 C 3.53125 -12.5625 3.75 -11.984375 4.1875 -11.546875 C 4.625 -11.109375 5.171875 -10.773438 5.828125 -10.546875 C 6.492188 -10.316406 7.382812 -10.0625 8.5 -9.78125 C 9.820312 -9.457031 10.890625 -9.132812 11.703125 -8.8125 C 12.515625 -8.5 13.203125 -8.019531 13.765625 -7.375 C 14.335938 -6.726562 14.625 -5.859375 14.625 -4.765625 C 14.625 -3.859375 14.378906 -3.03125 13.890625 -2.28125 C 13.398438 -1.53125 12.648438 -0.9375 11.640625 -0.5 C 10.628906 -0.0625 9.382812 0.15625 7.90625 0.15625 Z M 7.90625 0.15625 "/></g></g></g></svg>